REM MD5 0b37c3372c5429da5b4bff5d1a5ff2ac
FILE "Two-Ten Kaku (Japan).bin" BINARY
  TRACK 01 MODE2/2352
    INDEX 01 00:00:00
  TRACK 02 AUDIO
    INDEX 00 18:22:17
    INDEX 01 18:24:17
  TRACK 03 AUDIO
    INDEX 00 18:54:14
    INDEX 01 18:56:14
REM LEADOUT 22:50:24
